<svg xmlns="http://www.w3.org/2000/svg" width="1300" height="346" viewBox="0 0 1300 346" fill="none"><rect x="1" y="48.9336" width="52" height="52" rx="26" transform="rotate(-33.4379 1 48.9336)" fill="#78C8BF"></rect><rect x="1176.26" width="64" height="64" rx="10" transform="rotate(44.2965 1176.26 0)" fill="#F282B5"></rect><path d="M175.809 324.272C172.274 327.412 168.156 329.825 163.689 331.373C159.222 332.922 154.494 333.575 149.775 333.296C145.056 333.017 140.437 331.811 136.184 329.747C131.931 327.684 128.125 324.802 124.986 321.268C121.846 317.734 119.433 313.615 117.885 309.148C116.336 304.682 115.683 299.954 115.962 295.234C116.241 290.515 117.447 285.897 119.511 281.643C121.575 277.39 124.456 273.585 127.99 270.445L151.899 297.359L175.809 324.272Z" fill="#FCDF65"></path><path d="M1258.53 267.971C1259.54 267.151 1261.05 267.498 1261.61 268.677L1282.95 314.361C1283.66 315.87 1282.32 317.529 1280.69 317.157L1220.21 303.273C1218.59 302.901 1218.1 300.822 1219.4 299.772L1258.53 267.971Z" fill="#78C8BF"></path></svg>