<svg xmlns="http://www.w3.org/2000/svg" width="1206" height="485" fill="none"><path fill="#F282B5" d="M174.236 460.793a29.999 29.999 0 1 0-47.65-36.461l23.825 18.23 23.825 18.231Z"></path><path fill="#4ADE80" d="M453.016 443.789a25.998 25.998 0 0 0 6.621 36.168 25.999 25.999 0 0 0 36.169-6.621l-21.395-14.774-21.395-14.773Z"></path><circle cx="579.412" cy="77.563" r="21" fill="#BEF264"></circle><circle cx="1015.41" cy="36.563" r="20" fill="#FF8520"></circle><path fill="#78C8BF" d="M1128.5 387.721a1.003 1.003 0 0 1-1.26-.984l1.1-61.438a.996.996 0 0 1 1.61-.77l58.26 45.518c.65.508.44 1.54-.35 1.753l-59.36 15.921Z"></path><path fill="#8582D1" d="M20.847 47.041a.5.5 0 0 1-.62-.501l1.179-35.634a.5.5 0 0 1 .814-.372l33.435 27.075a.5.5 0 0 1-.194.874l-34.614 8.559Z"></path></svg>