<svg xmlns="http://www.w3.org/2000/svg" width="1281" height="1484" viewBox="0 0 1281 1484" fill="none"><circle cx="25" cy="1217" r="25" fill="#78C8BF"></circle><path d="M886.293 426.403C885.301 425.919 884.101 426.331 883.638 427.334C878.776 437.867 875.913 449.218 875.203 460.808C874.452 473.064 876.122 485.347 880.118 496.956C884.114 508.565 890.358 519.272 898.493 528.467C906.627 537.661 916.494 545.163 927.529 550.544C938.565 555.924 950.552 559.078 962.808 559.826C975.063 560.573 987.347 558.899 998.957 554.9C1010.57 550.9 1021.28 544.653 1030.47 536.515C1039.17 528.82 1046.35 519.576 1051.66 509.26C1052.17 508.278 1051.75 507.08 1050.76 506.596L968.528 466.5L886.293 426.403Z" fill="#BEF264"></path><path d="M1167.02 795.012C1167.8 795.793 1169.07 795.795 1169.82 794.989C1174.74 789.73 1178.68 783.624 1181.44 776.961C1184.46 769.681 1186.02 761.879 1186.02 754C1186.02 746.121 1184.47 738.319 1181.46 731.039C1178.45 723.759 1174.03 717.145 1168.46 711.574C1162.89 706.002 1156.28 701.583 1149 698.567C1141.72 695.552 1133.92 694 1126.04 694C1118.16 694 1110.36 695.552 1103.07 698.567C1096.41 701.327 1090.3 705.264 1085.04 710.183C1084.24 710.938 1084.24 712.207 1085.02 712.988L1126.02 754L1167.02 795.012Z" fill="#FCDF65"></path><circle cx="1009" cy="248" r="25" fill="#FF8520"></circle><path d="M1244.53 164.245C1245.23 165.099 1246.5 165.225 1247.34 164.506C1256.15 156.959 1263.48 147.835 1268.96 137.596C1274.76 126.769 1278.36 114.907 1279.57 102.688C1280.78 90.4689 1279.57 78.1318 1276.02 66.381C1272.46 54.6303 1266.62 43.696 1258.84 34.2026C1251.05 24.7092 1241.47 16.8425 1230.65 11.0516C1219.82 5.26078 1207.96 1.65922 1195.74 0.452581C1183.53 -0.754062 1171.19 0.457841 1159.44 4.0191C1148.32 7.38689 1137.94 12.7933 1128.81 19.9564C1127.94 20.6385 1127.82 21.9005 1128.52 22.7545L1186.53 93.4995L1244.53 164.245Z" fill="#F282B5"></path><circle cx="212" cy="1434" r="50" fill="#8582D1"></circle><path d="M0 963L0 818.097C0 816.279 2.22973 815.404 3.46627 816.737L137.883 961.64C139.07 962.92 138.163 965 136.417 965H2C0.895431 965 0 964.105 0 963Z" fill="#4ADE80"></path></svg>