<svg xmlns="http://www.w3.org/2000/svg" width="2400" height="2000" viewBox="0 0 2400 2000" fill="none"><g clip-path="url(#clip0_982_1508)"><rect width="2400" height="2000" fill="url(#paint0_linear_982_1508)"></rect><path d="M2457.34 668.075C2457.34 2425.59 3297.53 2254.2 1216.26 2211.09C530.83 2211.09 -549.81 3042.07 -24.8194 668.075C29.8068 421.057 530.83 210 1216.26 210C1901.69 210 2457.34 415.087 2457.34 668.075Z" fill="url(#paint1_linear_982_1508)"></path><path d="M1216.24 2212.34C1426.7 2216.7 1607.31 2222.37 1761.93 2227.23C1989.53 2234.38 2160.85 2239.76 2288.24 2236.58C2395.21 2233.92 2471.39 2225.22 2523.99 2206.4C2576.68 2187.55 2605.81 2158.49 2618.47 2115.17C2631.09 2072 2627.3 2014.82 2614.66 1939.8C2606.78 1893.09 2595.45 1839.36 2582.45 1777.68C2574.56 1740.26 2566.05 1699.92 2557.32 1656.44C2511.08 1426.08 2458.59 1107.35 2458.59 668.075C2458.59 604.334 2423.58 543.766 2360.63 488.83C2297.67 433.891 2206.64 384.472 2094.27 342.994C1869.5 260.036 1559.08 208.75 1216.26 208.75C873.428 208.75 576.657 261.53 358.72 345.239C249.753 387.093 160.453 436.694 94.9553 491.33C29.4634 545.962 -12.3039 605.691 -26.0399 667.805C-157.295 1261.34 -188.234 1654.71 -150.006 1910.88C-130.89 2038.99 -94.4673 2132.86 -44.5767 2200.3C5.32834 2267.76 68.6581 2308.7 141.446 2331.03C286.91 2375.64 470.16 2345.86 659.611 2305.06C692.278 2298.03 725.13 2290.66 758.01 2283.29C915.964 2247.89 1074.56 2212.34 1216.24 2212.34Z" stroke="url(#paint2_linear_982_1508)" stroke-opacity="0.6" stroke-width="2.5"></path><g opacity="0.8"><g opacity="0.2" filter="url(#filter0_bf_982_1508)"><circle cx="1782" cy="34" r="1" fill="white"></circle></g><g opacity="0.2" filter="url(#filter1_bf_982_1508)"><circle cx="1484" cy="82" r="1" fill="white"></circle></g><g opacity="0.2" filter="url(#filter2_bf_982_1508)"><circle cx="1603" cy="21" r="1" fill="white"></circle></g><g opacity="0.2" filter="url(#filter3_b_982_1508)"><circle cx="1754" cy="136" r="1" fill="white"></circle></g><g opacity="0.2" filter="url(#filter4_b_982_1508)"><circle cx="1784" cy="90" r="1" fill="white"></circle></g><g opacity="0.2" filter="url(#filter5_bf_982_1508)"><circle cx="1693" cy="36" r="1" fill="white"></circle></g><g opacity="0.2" filter="url(#filter6_b_982_1508)"><circle cx="1671" cy="104" r="1" fill="white"></circle></g><g opacity="0.2" filter="url(#filter7_bf_982_1508)"><circle cx="1629" cy="36" r="1" fill="white"></circle></g><g opacity="0.2" filter="url(#filter8_bf_982_1508)"><circle cx="1601" cy="69" r="1" fill="white"></circle></g><g opacity="0.2" filter="url(#filter9_b_982_1508)"><circle cx="1794" cy="119" r="1" fill="white"></circle></g><g opacity="0.2" filter="url(#filter10_b_982_1508)"><circle cx="1699" cy="96" r="1" fill="white"></circle></g><g opacity="0.2" filter="url(#filter11_b_982_1508)"><circle cx="1657" cy="66" r="1" fill="white"></circle></g><g opacity="0.2" filter="url(#filter12_b_982_1508)"><circle cx="1623" cy="139" r="1" fill="white"></circle></g><g opacity="0.2" filter="url(#filter13_b_982_1508)"><circle cx="1539" cy="93" r="1" fill="white"></circle></g><g opacity="0.2" filter="url(#filter14_b_982_1508)"><circle cx="1605" cy="94" r="1" fill="white"></circle></g><g opacity="0.2" filter="url(#filter15_b_982_1508)"><circle cx="1561" cy="149" r="1" fill="white"></circle></g><g opacity="0.2" filter="url(#filter16_b_982_1508)"><circle cx="1732" cy="65" r="1" fill="white"></circle></g><g opacity="0.2" filter="url(#filter17_b_982_1508)"><circle cx="1665" cy="147" r="1" fill="white"></circle></g><g opacity="0.2" filter="url(#filter18_bf_982_1508)"><circle cx="1852" cy="67" r="1" fill="white"></circle></g><g opacity="0.2" filter="url(#filter19_b_982_1508)"><circle cx="1872" cy="138" r="1" fill="white"></circle></g><g opacity="0.2" filter="url(#filter20_b_982_1508)"><circle cx="1831" cy="138" r="1" fill="white"></circle></g><g opacity="0.2" filter="url(#filter21_b_982_1508)"><circle cx="1843" cy="102" r="1" fill="white"></circle></g><g opacity="0.2" filter="url(#filter22_b_982_1508)"><circle cx="1706" cy="129" r="1" fill="white"></circle></g><g opacity="0.2" filter="url(#filter23_bf_982_1508)"><circle cx="1905" cy="124" r="1" fill="white"></circle></g><g opacity="0.2" filter="url(#filter24_bf_982_1508)"><circle cx="1919" cy="57" r="1" fill="white"></circle></g><g opacity="0.2" filter="url(#filter25_bf_982_1508)"><circle cx="1928" cy="135" r="1" fill="white"></circle></g></g><g opacity="0.2" filter="url(#filter26_bf_982_1508)"><circle cx="1239" cy="14" r="1" fill="white"></circle></g><g opacity="0.2" filter="url(#filter27_bf_982_1508)"><circle cx="941" cy="62" r="1" fill="white"></circle></g><g opacity="0.2" filter="url(#filter28_bf_982_1508)"><circle cx="1060" cy="1" r="1" fill="white"></circle></g><g opacity="0.2" filter="url(#filter29_b_982_1508)"><circle cx="1211" cy="116" r="1" fill="white"></circle></g><g opacity="0.2" filter="url(#filter30_b_982_1508)"><circle cx="1241" cy="70" r="1" fill="white"></circle></g><g opacity="0.2" filter="url(#filter31_bf_982_1508)"><circle cx="1150" cy="16" r="1" fill="white"></circle></g><g opacity="0.2" filter="url(#filter32_b_982_1508)"><circle cx="1128" cy="84" r="1" fill="white"></circle></g><g opacity="0.2" filter="url(#filter33_bf_982_1508)"><circle cx="1086" cy="16" r="1" fill="white"></circle></g><g opacity="0.2" filter="url(#filter34_bf_982_1508)"><circle cx="1058" cy="49" r="1" fill="white"></circle></g><g opacity="0.2" filter="url(#filter35_b_982_1508)"><circle cx="1251" cy="99" r="1" fill="white"></circle></g><g opacity="0.2" filter="url(#filter36_b_982_1508)"><circle cx="1156" cy="76" r="1" fill="white"></circle></g><g opacity="0.2" filter="url(#filter37_b_982_1508)"><circle cx="1114" cy="46" r="1" fill="white"></circle></g><g opacity="0.2" filter="url(#filter38_b_982_1508)"><circle cx="1080" cy="119" r="1" fill="white"></circle></g><g opacity="0.2" filter="url(#filter39_b_982_1508)"><circle cx="996" cy="73" r="1" fill="white"></circle></g><g opacity="0.2" filter="url(#filter40_b_982_1508)"><circle cx="1062" cy="74" r="1" fill="white"></circle></g><g opacity="0.2" filter="url(#filter41_b_982_1508)"><circle cx="1018" cy="129" r="1" fill="white"></circle></g><g opacity="0.2" filter="url(#filter42_b_982_1508)"><circle cx="1189" cy="45" r="1" fill="white"></circle></g><g opacity="0.2" filter="url(#filter43_b_982_1508)"><circle cx="1122" cy="127" r="1" fill="white"></circle></g><g opacity="0.2" filter="url(#filter44_bf_982_1508)"><circle cx="1309" cy="47" r="1" fill="white"></circle></g><g opacity="0.2" filter="url(#filter45_b_982_1508)"><circle cx="1329" cy="118" r="1" fill="white"></circle></g><g opacity="0.2" filter="url(#filter46_b_982_1508)"><circle cx="1288" cy="118" r="1" fill="white"></circle></g><g opacity="0.2" filter="url(#filter47_b_982_1508)"><circle cx="1300" cy="82" r="1" fill="white"></circle></g><g opacity="0.2" filter="url(#filter48_b_982_1508)"><circle cx="1163" cy="109" r="1" fill="white"></circle></g><g opacity="0.2" filter="url(#filter49_bf_982_1508)"><circle cx="1362" cy="104" r="1" fill="white"></circle></g><g opacity="0.2" filter="url(#filter50_bf_982_1508)"><circle cx="1376" cy="37" r="1" fill="white"></circle></g><g opacity="0.2" filter="url(#filter51_bf_982_1508)"><circle cx="1385" cy="115" r="1" fill="white"></circle></g><g opacity="0.6"><g opacity="0.2" filter="url(#filter52_bf_982_1508)"><circle cx="756" cy="14" r="1" fill="white"></circle></g><g opacity="0.2" filter="url(#filter53_bf_982_1508)"><circle cx="458" cy="62" r="1" fill="white"></circle></g><g opacity="0.2" filter="url(#filter54_bf_982_1508)"><circle cx="577" cy="1" r="1" fill="white"></circle></g><g opacity="0.2" filter="url(#filter55_b_982_1508)"><circle cx="728" cy="116" r="1" fill="white"></circle></g><g opacity="0.2" filter="url(#filter56_b_982_1508)"><circle cx="758" cy="70" r="1" fill="white"></circle></g><g opacity="0.2" filter="url(#filter57_bf_982_1508)"><circle cx="667" cy="16" r="1" fill="white"></circle></g><g opacity="0.2" filter="url(#filter58_b_982_1508)"><circle cx="645" cy="84" r="1" fill="white"></circle></g><g opacity="0.2" filter="url(#filter59_bf_982_1508)"><circle cx="603" cy="16" r="1" fill="white"></circle></g><g opacity="0.2" filter="url(#filter60_bf_982_1508)"><circle cx="575" cy="49" r="1" fill="white"></circle></g><g opacity="0.2" filter="url(#filter61_b_982_1508)"><circle cx="768" cy="99" r="1" fill="white"></circle></g><g opacity="0.2" filter="url(#filter62_b_982_1508)"><circle cx="673" cy="76" r="1" fill="white"></circle></g><g opacity="0.2" filter="url(#filter63_b_982_1508)"><circle cx="631" cy="46" r="1" fill="white"></circle></g><g opacity="0.2" filter="url(#filter64_b_982_1508)"><circle cx="597" cy="119" r="1" fill="white"></circle></g><g opacity="0.2" filter="url(#filter65_b_982_1508)"><circle cx="513" cy="73" r="1" fill="white"></circle></g><g opacity="0.2" filter="url(#filter66_b_982_1508)"><circle cx="579" cy="74" r="1" fill="white"></circle></g><g opacity="0.2" filter="url(#filter67_b_982_1508)"><circle cx="535" cy="129" r="1" fill="white"></circle></g><g opacity="0.2" filter="url(#filter68_b_982_1508)"><circle cx="706" cy="45" r="1" fill="white"></circle></g><g opacity="0.2" filter="url(#filter69_b_982_1508)"><circle cx="639" cy="127" r="1" fill="white"></circle></g><g opacity="0.2" filter="url(#filter70_bf_982_1508)"><circle cx="826" cy="47" r="1" fill="white"></circle></g><g opacity="0.2" filter="url(#filter71_b_982_1508)"><circle cx="846" cy="118" r="1" fill="white"></circle></g><g opacity="0.2" filter="url(#filter72_b_982_1508)"><circle cx="805" cy="118" r="1" fill="white"></circle></g><g opacity="0.2" filter="url(#filter73_b_982_1508)"><circle cx="817" cy="82" r="1" fill="white"></circle></g><g opacity="0.2" filter="url(#filter74_b_982_1508)"><circle cx="680" cy="109" r="1" fill="white"></circle></g><g opacity="0.2" filter="url(#filter75_bf_982_1508)"><circle cx="879" cy="104" r="1" fill="white"></circle></g><g opacity="0.2" filter="url(#filter76_bf_982_1508)"><circle cx="893" cy="37" r="1" fill="white"></circle></g><g opacity="0.2" filter="url(#filter77_bf_982_1508)"><circle cx="902" cy="115" r="1" fill="white"></circle></g></g></g><defs><filter id="filter0_bf_982_1508" x="1769" y="21" width="26" height="26" color-interpolation-filters="sRGB"><feGaussianBlur stdDeviation="6"></feGaussianBlur><feGaussianBlur stdDeviation="1"></feGaussianBlur></filter><filter id="filter1_bf_982_1508" x="1471" y="69" width="26" height="26" color-interpolation-filters="sRGB"><feGaussianBlur stdDeviation="6"></feGaussianBlur><feGaussianBlur stdDeviation="1"></feGaussianBlur></filter><filter id="filter2_bf_982_1508" x="1590" y="8" width="26" height="26" color-interpolation-filters="sRGB"><feGaussianBlur stdDeviation="6"></feGaussianBlur><feGaussianBlur stdDeviation="1"></feGaussianBlur></filter><filter id="filter3_b_982_1508" x="1741" y="123" width="26" height="26" color-interpolation-filters="sRGB"><feGaussianBlur stdDeviation="6"></feGaussianBlur></filter><filter id="filter4_b_982_1508" x="1771" y="77" width="26" height="26" color-interpolation-filters="sRGB"><feGaussianBlur stdDeviation="6"></feGaussianBlur></filter><filter id="filter5_bf_982_1508" x="1680" y="23" width="26" height="26" color-interpolation-filters="sRGB"><feGaussianBlur stdDeviation="6"></feGaussianBlur><feGaussianBlur stdDeviation="1"></feGaussianBlur></filter><filter id="filter6_b_982_1508" x="1658" y="91" width="26" height="26" color-interpolation-filters="sRGB"><feGaussianBlur stdDeviation="6"></feGaussianBlur></filter><filter id="filter7_bf_982_1508" x="1616" y="23" width="26" height="26" color-interpolation-filters="sRGB"><feGaussianBlur stdDeviation="6"></feGaussianBlur><feGaussianBlur stdDeviation="1"></feGaussianBlur></filter><filter id="filter8_bf_982_1508" x="1588" y="56" width="26" height="26" color-interpolation-filters="sRGB"><feGaussianBlur stdDeviation="6"></feGaussianBlur><feGaussianBlur stdDeviation="1"></feGaussianBlur></filter><filter id="filter9_b_982_1508" x="1781" y="106" width="26" height="26" color-interpolation-filters="sRGB"><feGaussianBlur stdDeviation="6"></feGaussianBlur></filter><filter id="filter10_b_982_1508" x="1686" y="83" width="26" height="26" color-interpolation-filters="sRGB"><feGaussianBlur stdDeviation="6"></feGaussianBlur></filter><filter id="filter11_b_982_1508" x="1644" y="53" width="26" height="26" color-interpolation-filters="sRGB"><feGaussianBlur stdDeviation="6"></feGaussianBlur></filter><filter id="filter12_b_982_1508" x="1610" y="126" width="26" height="26" color-interpolation-filters="sRGB"><feGaussianBlur stdDeviation="6"></feGaussianBlur></filter><filter id="filter13_b_982_1508" x="1526" y="80" width="26" height="26" color-interpolation-filters="sRGB"><feGaussianBlur stdDeviation="6"></feGaussianBlur></filter><filter id="filter14_b_982_1508" x="1592" y="81" width="26" height="26" color-interpolation-filters="sRGB"><feGaussianBlur stdDeviation="6"></feGaussianBlur></filter><filter id="filter15_b_982_1508" x="1548" y="136" width="26" height="26" color-interpolation-filters="sRGB"><feGaussianBlur stdDeviation="6"></feGaussianBlur></filter><filter id="filter16_b_982_1508" x="1719" y="52" width="26" height="26" color-interpolation-filters="sRGB"><feGaussianBlur stdDeviation="6"></feGaussianBlur></filter><filter id="filter17_b_982_1508" x="1652" y="134" width="26" height="26" color-interpolation-filters="sRGB"><feGaussianBlur stdDeviation="6"></feGaussianBlur></filter><filter id="filter18_bf_982_1508" x="1839" y="54" width="26" height="26" color-interpolation-filters="sRGB"><feGaussianBlur stdDeviation="6"></feGaussianBlur><feGaussianBlur stdDeviation="1"></feGaussianBlur></filter><filter id="filter19_b_982_1508" x="1859" y="125" width="26" height="26" color-interpolation-filters="sRGB"><feGaussianBlur stdDeviation="6"></feGaussianBlur></filter><filter id="filter20_b_982_1508" x="1818" y="125" width="26" height="26" color-interpolation-filters="sRGB"><feGaussianBlur stdDeviation="6"></feGaussianBlur></filter><filter id="filter21_b_982_1508" x="1830" y="89" width="26" height="26" color-interpolation-filters="sRGB"><feGaussianBlur stdDeviation="6"></feGaussianBlur></filter><filter id="filter22_b_982_1508" x="1693" y="116" width="26" height="26" color-interpolation-filters="sRGB"><feGaussianBlur stdDeviation="6"></feGaussianBlur></filter><filter id="filter23_bf_982_1508" x="1892" y="111" width="26" height="26" color-interpolation-filters="sRGB"><feGaussianBlur stdDeviation="6"></feGaussianBlur><feGaussianBlur stdDeviation="1"></feGaussianBlur></filter><filter id="filter24_bf_982_1508" x="1906" y="44" width="26" height="26" color-interpolation-filters="sRGB"><feGaussianBlur stdDeviation="6"></feGaussianBlur><feGaussianBlur stdDeviation="1"></feGaussianBlur></filter><filter id="filter25_bf_982_1508" x="1915" y="122" width="26" height="26" color-interpolation-filters="sRGB"><feGaussianBlur stdDeviation="6"></feGaussianBlur><feGaussianBlur stdDeviation="1"></feGaussianBlur></filter><filter id="filter26_bf_982_1508" x="1226" y="1" width="26" height="26" color-interpolation-filters="sRGB"><feGaussianBlur stdDeviation="6"></feGaussianBlur><feGaussianBlur stdDeviation="1"></feGaussianBlur></filter><filter id="filter27_bf_982_1508" x="928" y="49" width="26" height="26" color-interpolation-filters="sRGB"><feGaussianBlur stdDeviation="6"></feGaussianBlur><feGaussianBlur stdDeviation="1"></feGaussianBlur></filter><filter id="filter28_bf_982_1508" x="1047" y="-12" width="26" height="26" color-interpolation-filters="sRGB"><feGaussianBlur stdDeviation="6"></feGaussianBlur><feGaussianBlur stdDeviation="1"></feGaussianBlur></filter><filter id="filter29_b_982_1508" x="1198" y="103" width="26" height="26" color-interpolation-filters="sRGB"><feGaussianBlur stdDeviation="6"></feGaussianBlur></filter><filter id="filter30_b_982_1508" x="1228" y="57" width="26" height="26" color-interpolation-filters="sRGB"><feGaussianBlur stdDeviation="6"></feGaussianBlur></filter><filter id="filter31_bf_982_1508" x="1137" y="3" width="26" height="26" color-interpolation-filters="sRGB"><feGaussianBlur stdDeviation="6"></feGaussianBlur><feGaussianBlur stdDeviation="1"></feGaussianBlur></filter><filter id="filter32_b_982_1508" x="1115" y="71" width="26" height="26" color-interpolation-filters="sRGB"><feGaussianBlur stdDeviation="6"></feGaussianBlur></filter><filter id="filter33_bf_982_1508" x="1073" y="3" width="26" height="26" color-interpolation-filters="sRGB"><feGaussianBlur stdDeviation="6"></feGaussianBlur><feGaussianBlur stdDeviation="1"></feGaussianBlur></filter><filter id="filter34_bf_982_1508" x="1045" y="36" width="26" height="26" color-interpolation-filters="sRGB"><feGaussianBlur stdDeviation="6"></feGaussianBlur><feGaussianBlur stdDeviation="1"></feGaussianBlur></filter><filter id="filter35_b_982_1508" x="1238" y="86" width="26" height="26" color-interpolation-filters="sRGB"><feGaussianBlur stdDeviation="6"></feGaussianBlur></filter><filter id="filter36_b_982_1508" x="1143" y="63" width="26" height="26" color-interpolation-filters="sRGB"><feGaussianBlur stdDeviation="6"></feGaussianBlur></filter><filter id="filter37_b_982_1508" x="1101" y="33" width="26" height="26" color-interpolation-filters="sRGB"><feGaussianBlur stdDeviation="6"></feGaussianBlur></filter><filter id="filter38_b_982_1508" x="1067" y="106" width="26" height="26" color-interpolation-filters="sRGB"><feGaussianBlur stdDeviation="6"></feGaussianBlur></filter><filter id="filter39_b_982_1508" x="983" y="60" width="26" height="26" color-interpolation-filters="sRGB"><feGaussianBlur stdDeviation="6"></feGaussianBlur></filter><filter id="filter40_b_982_1508" x="1049" y="61" width="26" height="26" color-interpolation-filters="sRGB"><feGaussianBlur stdDeviation="6"></feGaussianBlur></filter><filter id="filter41_b_982_1508" x="1005" y="116" width="26" height="26" color-interpolation-filters="sRGB"><feGaussianBlur stdDeviation="6"></feGaussianBlur></filter><filter id="filter42_b_982_1508" x="1176" y="32" width="26" height="26" color-interpolation-filters="sRGB"><feGaussianBlur stdDeviation="6"></feGaussianBlur></filter><filter id="filter43_b_982_1508" x="1109" y="114" width="26" height="26" color-interpolation-filters="sRGB"><feGaussianBlur stdDeviation="6"></feGaussianBlur></filter><filter id="filter44_bf_982_1508" x="1296" y="34" width="26" height="26" color-interpolation-filters="sRGB"><feGaussianBlur stdDeviation="6"></feGaussianBlur><feGaussianBlur stdDeviation="1"></feGaussianBlur></filter><filter id="filter45_b_982_1508" x="1316" y="105" width="26" height="26" color-interpolation-filters="sRGB"><feGaussianBlur stdDeviation="6"></feGaussianBlur></filter><filter id="filter46_b_982_1508" x="1275" y="105" width="26" height="26" color-interpolation-filters="sRGB"><feGaussianBlur stdDeviation="6"></feGaussianBlur></filter><filter id="filter47_b_982_1508" x="1287" y="69" width="26" height="26" color-interpolation-filters="sRGB"><feGaussianBlur stdDeviation="6"></feGaussianBlur></filter><filter id="filter48_b_982_1508" x="1150" y="96" width="26" height="26" color-interpolation-filters="sRGB"><feGaussianBlur stdDeviation="6"></feGaussianBlur></filter><filter id="filter49_bf_982_1508" x="1349" y="91" width="26" height="26" color-interpolation-filters="sRGB"><feGaussianBlur stdDeviation="6"></feGaussianBlur><feGaussianBlur stdDeviation="1"></feGaussianBlur></filter><filter id="filter50_bf_982_1508" x="1363" y="24" width="26" height="26" color-interpolation-filters="sRGB"><feGaussianBlur stdDeviation="6"></feGaussianBlur><feGaussianBlur stdDeviation="1"></feGaussianBlur></filter><filter id="filter51_bf_982_1508" x="1372" y="102" width="26" height="26" color-interpolation-filters="sRGB"><feGaussianBlur stdDeviation="6"></feGaussianBlur><feGaussianBlur stdDeviation="1"></feGaussianBlur></filter><filter id="filter52_bf_982_1508" x="743" y="1" width="26" height="26" color-interpolation-filters="sRGB"><feGaussianBlur stdDeviation="6"></feGaussianBlur><feGaussianBlur stdDeviation="1"></feGaussianBlur></filter><filter id="filter53_bf_982_1508" x="445" y="49" width="26" height="26" color-interpolation-filters="sRGB"><feGaussianBlur stdDeviation="6"></feGaussianBlur><feGaussianBlur stdDeviation="1"></feGaussianBlur></filter><filter id="filter54_bf_982_1508" x="564" y="-12" width="26" height="26" color-interpolation-filters="sRGB"><feGaussianBlur stdDeviation="6"></feGaussianBlur><feGaussianBlur stdDeviation="1"></feGaussianBlur></filter><filter id="filter55_b_982_1508" x="715" y="103" width="26" height="26" color-interpolation-filters="sRGB"><feGaussianBlur stdDeviation="6"></feGaussianBlur></filter><filter id="filter56_b_982_1508" x="745" y="57" width="26" height="26" color-interpolation-filters="sRGB"><feGaussianBlur stdDeviation="6"></feGaussianBlur></filter><filter id="filter57_bf_982_1508" x="654" y="3" width="26" height="26" color-interpolation-filters="sRGB"><feGaussianBlur stdDeviation="6"></feGaussianBlur><feGaussianBlur stdDeviation="1"></feGaussianBlur></filter><filter id="filter58_b_982_1508" x="632" y="71" width="26" height="26" color-interpolation-filters="sRGB"><feGaussianBlur stdDeviation="6"></feGaussianBlur></filter><filter id="filter59_bf_982_1508" x="590" y="3" width="26" height="26" color-interpolation-filters="sRGB"><feGaussianBlur stdDeviation="6"></feGaussianBlur><feGaussianBlur stdDeviation="1"></feGaussianBlur></filter><filter id="filter60_bf_982_1508" x="562" y="36" width="26" height="26" color-interpolation-filters="sRGB"><feGaussianBlur stdDeviation="6"></feGaussianBlur><feGaussianBlur stdDeviation="1"></feGaussianBlur></filter><filter id="filter61_b_982_1508" x="755" y="86" width="26" height="26" color-interpolation-filters="sRGB"><feGaussianBlur stdDeviation="6"></feGaussianBlur></filter><filter id="filter62_b_982_1508" x="660" y="63" width="26" height="26" color-interpolation-filters="sRGB"><feGaussianBlur stdDeviation="6"></feGaussianBlur></filter><filter id="filter63_b_982_1508" x="618" y="33" width="26" height="26" color-interpolation-filters="sRGB"><feGaussianBlur stdDeviation="6"></feGaussianBlur></filter><filter id="filter64_b_982_1508" x="584" y="106" width="26" height="26" color-interpolation-filters="sRGB"><feGaussianBlur stdDeviation="6"></feGaussianBlur></filter><filter id="filter65_b_982_1508" x="500" y="60" width="26" height="26" color-interpolation-filters="sRGB"><feGaussianBlur stdDeviation="6"></feGaussianBlur></filter><filter id="filter66_b_982_1508" x="566" y="61" width="26" height="26" color-interpolation-filters="sRGB"><feGaussianBlur stdDeviation="6"></feGaussianBlur></filter><filter id="filter67_b_982_1508" x="522" y="116" width="26" height="26" color-interpolation-filters="sRGB"><feGaussianBlur stdDeviation="6"></feGaussianBlur></filter><filter id="filter68_b_982_1508" x="693" y="32" width="26" height="26" color-interpolation-filters="sRGB"><feGaussianBlur stdDeviation="6"></feGaussianBlur></filter><filter id="filter69_b_982_1508" x="626" y="114" width="26" height="26" color-interpolation-filters="sRGB"><feGaussianBlur stdDeviation="6"></feGaussianBlur></filter><filter id="filter70_bf_982_1508" x="813" y="34" width="26" height="26" color-interpolation-filters="sRGB"><feGaussianBlur stdDeviation="6"></feGaussianBlur><feGaussianBlur stdDeviation="1"></feGaussianBlur></filter><filter id="filter71_b_982_1508" x="833" y="105" width="26" height="26" color-interpolation-filters="sRGB"><feGaussianBlur stdDeviation="6"></feGaussianBlur></filter><filter id="filter72_b_982_1508" x="792" y="105" width="26" height="26" color-interpolation-filters="sRGB"><feGaussianBlur stdDeviation="6"></feGaussianBlur></filter><filter id="filter73_b_982_1508" x="804" y="69" width="26" height="26" color-interpolation-filters="sRGB"><feGaussianBlur stdDeviation="6"></feGaussianBlur></filter><filter id="filter74_b_982_1508" x="667" y="96" width="26" height="26" color-interpolation-filters="sRGB"><feGaussianBlur stdDeviation="6"></feGaussianBlur></filter><filter id="filter75_bf_982_1508" x="866" y="91" width="26" height="26" color-interpolation-filters="sRGB"><feGaussianBlur stdDeviation="6"></feGaussianBlur><feGaussianBlur stdDeviation="1"></feGaussianBlur></filter><filter id="filter76_bf_982_1508" x="880" y="24" width="26" height="26" color-interpolation-filters="sRGB"><feGaussianBlur stdDeviation="6"></feGaussianBlur><feGaussianBlur stdDeviation="1"></feGaussianBlur></filter><filter id="filter77_bf_982_1508" x="889" y="102" width="26" height="26" color-interpolation-filters="sRGB"><feGaussianBlur stdDeviation="6"></feGaussianBlur><feGaussianBlur stdDeviation="1"></feGaussianBlur></filter><linearGradient id="paint0_linear_982_1508" x1="1200" y1="0" x2="1200" y2="1876.9" gradientUnits="userSpaceOnUse"><stop stop-color="#00020E"></stop><stop offset="1" stop-color="#02051C"></stop></linearGradient><linearGradient id="paint1_linear_982_1508" x1="1216.26" y1="210" x2="1216.26" y2="822.844" gradientUnits="userSpaceOnUse"><stop stop-color="#010311"></stop><stop offset="1" stop-color="#010310"></stop></linearGradient><linearGradient id="paint2_linear_982_1508" x1="1544.82" y1="210" x2="895.07" y2="81.669" gradientUnits="userSpaceOnUse"><stop stop-color="white" stop-opacity="0"></stop><stop offset="0.455674" stop-color="white"></stop><stop offset="1" stop-color="white" stop-opacity="0"></stop></linearGradient><clipPath id="clip0_982_1508"><rect width="2400" height="2000" fill="white"></rect></clipPath></defs></svg>