<svg xmlns="http://www.w3.org/2000/svg" width="52" height="52" viewBox="0 0 52 52" fill="none"><path d="M16.5749 45.306C16.5099 45.306 16.4232 45.3493 16.3582 45.3493C12.1549 43.2693 8.73155 39.8243 6.62988 35.621C6.62988 35.556 6.67322 35.4693 6.67322 35.4043C9.31655 36.1843 12.0465 36.7693 14.7549 37.2243C15.2315 39.9543 15.7949 42.6626 16.5749 45.306Z" fill="#1D1D1D"></path><path d="M45.3699 35.6426C43.2249 39.9543 39.6499 43.4426 35.2949 45.5443C36.1183 42.7926 36.8116 40.0193 37.2666 37.2243C39.9966 36.7693 42.6833 36.1843 45.3266 35.4043C45.3049 35.491 45.3699 35.5776 45.3699 35.6426Z" fill="#1D1D1D"></path><path d="M45.5433 16.7054C42.8133 15.882 40.0616 15.2104 37.2666 14.7337C36.8116 11.9387 36.1399 9.16536 35.2949 6.45703C39.7799 8.60203 43.3983 12.2204 45.5433 16.7054Z" fill="#1D1D1D"></path><path d="M16.5754 6.69586C15.7954 9.33919 15.232 12.0259 14.777 14.7559C11.982 15.1892 9.2087 15.8825 6.45703 16.7059C8.5587 12.3509 12.047 8.77586 16.3587 6.63086C16.4237 6.63086 16.5104 6.69586 16.5754 6.69586Z" fill="#1D1D1D"></path><path d="M33.5618 14.279C28.5351 13.7157 23.4651 13.7157 18.4385 14.279C18.9801 11.3107 19.6735 8.34232 20.6485 5.48232C20.6918 5.30898 20.6701 5.17898 20.6918 5.00565C22.4035 4.59398 24.1585 4.33398 26.0001 4.33398C27.8201 4.33398 29.5968 4.59398 31.2868 5.00565C31.3085 5.17898 31.3085 5.30898 31.3518 5.48232C32.3268 8.36398 33.0201 11.3107 33.5618 14.279Z" fill="#1D1D1D"></path><path d="M14.278 33.5608C11.288 33.0192 8.34134 32.3258 5.48134 31.3508C5.30801 31.3075 5.17801 31.3292 5.00467 31.3075C4.59301 29.5958 4.33301 27.8408 4.33301 25.9992C4.33301 24.1792 4.59301 22.4025 5.00467 20.7125C5.17801 20.6908 5.30801 20.6908 5.48134 20.6475C8.36301 19.6942 11.288 18.9792 14.278 18.4375C13.7363 23.4642 13.7363 28.5342 14.278 33.5608Z" fill="#1D1D1D"></path><path d="M47.6667 25.9992C47.6667 27.8408 47.4067 29.5958 46.995 31.3075C46.8217 31.3292 46.6917 31.3075 46.5183 31.3508C43.6367 32.3042 40.69 33.0192 37.7217 33.5608C38.285 28.5342 38.285 23.4642 37.7217 18.4375C40.69 18.9792 43.6583 19.6725 46.5183 20.6475C46.6917 20.6908 46.8217 20.7125 46.995 20.7125C47.4067 22.4242 47.6667 24.1792 47.6667 25.9992Z" fill="#1D1D1D"></path><path d="M33.5618 37.7207C33.0201 40.7107 32.3268 43.6574 31.3518 46.5174C31.3085 46.6907 31.3085 46.8207 31.2868 46.994C29.5968 47.4057 27.8201 47.6657 26.0001 47.6657C24.1585 47.6657 22.4035 47.4057 20.6918 46.994C20.6701 46.8207 20.6918 46.6907 20.6485 46.5174C19.6951 43.6357 18.9801 40.7107 18.4385 37.7207C20.9518 38.0024 23.4651 38.1974 26.0001 38.1974C28.5351 38.1974 31.0701 38.0024 33.5618 37.7207Z" fill="#1D1D1D"></path><path d="M34.1536 34.1545C28.7345 34.8382 23.2648 34.8382 17.8458 34.1545C17.1621 28.7355 17.1621 23.2658 17.8458 17.8468C23.2648 17.1631 28.7345 17.1631 34.1536 17.8468C34.8373 23.2658 34.8373 28.7355 34.1536 34.1545Z" fill="#1D1D1D"></path></svg>