<svg xmlns="http://www.w3.org/2000/svg" width="52" height="52" viewBox="0 0 52 52" fill="none"><path d="M42.207 6.10914L42.8136 7.34412C43.117 7.95079 43.8753 8.51414 44.547 8.64414L45.3703 8.77413C47.8403 9.1858 48.4253 11.0058 46.6486 12.8041L45.8903 13.5624C45.3919 14.0824 45.1103 15.0791 45.262 15.7725L45.3703 16.2275C46.042 19.2175 44.4603 20.3658 41.8603 18.8058L41.297 18.4808C40.6253 18.0908 39.542 18.0908 38.8703 18.4808L38.3069 18.8058C35.6853 20.3874 34.1036 19.2175 34.797 16.2275L34.9053 15.7725C35.0569 15.0791 34.7753 14.0824 34.277 13.5624L33.5186 12.8041C31.742 11.0058 32.327 9.1858 34.797 8.77413L35.6203 8.64414C36.2703 8.5358 37.0503 7.95079 37.3536 7.34412L37.9603 6.10914C39.1303 3.74747 41.037 3.74747 42.207 6.10914Z" fill="#1D1D1D"></path><path d="M47.6663 20.9523V33.584C47.6663 41.1673 43.333 44.4173 36.833 44.4173H15.1663C8.66634 44.4173 4.33301 41.1673 4.33301 33.584V18.4173C4.33301 10.834 8.66634 7.58398 15.1663 7.58398H30.4413C30.008 8.06065 29.683 8.62399 29.488 9.25233C28.8596 11.2023 29.488 13.3257 31.2213 15.0807L31.633 15.4923C30.7447 19.414 32.5863 21.2556 33.4313 21.8623C33.908 22.209 34.883 22.7506 36.2697 22.7506C37.288 22.7506 38.5447 22.4473 39.9963 21.5807L40.083 21.5373L40.1697 21.5807C43.593 23.639 45.9114 22.469 46.7347 21.8623C46.9947 21.689 47.3413 21.3856 47.6663 20.9523Z" fill="#1D1D1D"></path><path d="M26.0003 27.885C24.1803 27.885 22.3387 27.3217 20.9303 26.1733L14.1487 20.7567C13.4553 20.1933 13.3253 19.175 13.8887 18.4817C14.452 17.7883 15.4703 17.6583 16.1636 18.2217L22.9453 23.6383C24.592 24.96 27.387 24.96 29.0337 23.6383C29.727 23.075 30.7454 23.1833 31.3087 23.8983C31.872 24.5917 31.7636 25.6317 31.0486 26.1733C29.662 27.3217 27.8203 27.885 26.0003 27.885Z" fill="#8582D1"></path></svg>