<svg xmlns="http://www.w3.org/2000/svg" width="52" height="53" viewBox="0 0 52 53" fill="none"><path d="M42.207 28.0577H46.5837V24.9377C46.5837 20.4527 42.922 16.791 38.437 16.791H13.5636C9.07865 16.791 5.41699 20.4527 5.41699 24.9377V34.406C6.91199 33.2144 8.79699 32.4993 10.8337 32.4993C15.622 32.4993 19.5003 36.3777 19.5003 41.166C19.5003 42.791 19.0453 44.3293 18.2437 45.6293C17.7887 46.4093 17.2037 47.1027 16.532 47.666H38.437C42.922 47.666 46.5837 44.0043 46.5837 39.5193V36.941H42.467C40.127 36.941 37.982 35.2293 37.787 32.8893C37.657 31.5243 38.177 30.246 39.087 29.3577C39.8886 28.5343 40.9937 28.0577 42.207 28.0577Z" fill="#1D1D1D"></path><path d="M13.5636 15.7912C10.6772 15.7912 8.0955 17.1405 6.41699 19.2404V16.9862C6.41699 14.8217 7.74327 12.8986 9.75754 12.1364L26.9548 5.6387C26.9557 5.63839 26.9565 5.63807 26.9574 5.63775C28.9988 4.88239 31.1753 6.38306 31.1753 8.55787V15.7912H13.5636Z" fill="#1D1D1D" stroke="#78C8BF" stroke-width="2"></path><path d="M46.713 37.9419H46.7309L46.7487 37.9412C48.486 37.8792 49.8797 36.476 49.8797 34.732V30.2685C49.8797 28.5245 48.486 27.1213 46.7487 27.0592L46.7309 27.0586H46.713H42.2064C40.7295 27.0586 39.3693 27.6394 38.3787 28.6518C37.2704 29.7389 36.6327 31.3045 36.7903 32.9792C37.0378 35.9093 39.687 37.9419 42.4664 37.9419H46.713Z" fill="#1D1D1D" stroke="#78C8BF" stroke-width="2"></path><path d="M30.3337 27.625H15.167C14.2787 27.625 13.542 26.8883 13.542 26C13.542 25.1117 14.2787 24.375 15.167 24.375H30.3337C31.222 24.375 31.9587 25.1117 31.9587 26C31.9587 26.8883 31.222 27.625 30.3337 27.625Z" fill="#78C8BF"></path><circle cx="10.665" cy="41.665" r="9.665" fill="#78C8BF" stroke="#78C8BF" stroke-width="2"></circle><path d="M10.6667 33C8.63 33 6.745 33.715 5.25 34.9067C3.25667 36.4883 2 38.9367 2 41.6667C2 43.2917 2.455 44.83 3.25667 46.13C4.75167 48.6433 7.50333 50.3333 10.6667 50.3333C12.855 50.3333 14.8483 49.5317 16.365 48.1667C17.0367 47.6033 17.6217 46.91 18.0767 46.13C18.8783 44.83 19.3333 43.2917 19.3333 41.6667C19.3333 36.8783 15.455 33 10.6667 33ZM15.1517 40.735L10.5367 45.0033C10.2333 45.285 9.82165 45.4366 9.43165 45.4366C9.01998 45.4366 8.60832 45.285 8.28332 44.96L6.13834 42.8151C5.51001 42.1867 5.51001 41.1466 6.13834 40.5183C6.76667 39.8899 7.80667 39.8899 8.435 40.5183L9.47499 41.5584L12.9417 38.3516C13.5917 37.7449 14.6317 37.7884 15.2383 38.4384C15.845 39.0884 15.8017 40.1283 15.1517 40.735Z" fill="#1D1D1D"></path></svg>