<svg xmlns="http://www.w3.org/2000/svg" width="52" height="52" viewBox="0 0 52 52" fill="none"><path d="M42.2498 16.2496L39.0215 19.4779L32.5215 12.9779L35.7498 9.74958C36.6598 8.83958 37.8298 8.40625 38.9998 8.40625C40.1698 8.40625 41.3398 8.83958 42.2498 9.74958C44.0482 11.5479 44.0482 14.4513 42.2498 16.2496Z" fill="#1D1D1D"></path><path d="M38 20.344L13.6603 44.6836C11.9052 46.4388 9.07153 46.4388 7.31637 44.6836C5.56121 42.9285 5.56121 40.0948 7.31637 38.3397L31.656 14L38 20.344Z" fill="#1D1D1D"></path><path d="M21.5588 7.58313L22.4471 4.57146C22.5338 4.28979 22.4471 3.98646 22.2521 3.76979C22.0571 3.55313 21.7104 3.46646 21.4288 3.55313L18.4171 4.44146L15.4054 3.55313C15.1238 3.46646 14.8204 3.55313 14.6038 3.74813C14.3871 3.96479 14.3221 4.26813 14.4088 4.54979L15.2754 7.58313L14.3871 10.5948C14.3004 10.8765 14.3871 11.1798 14.5821 11.3965C14.7988 11.6131 15.1021 11.6781 15.3838 11.5915L18.4171 10.7248L21.4288 11.6131C21.5154 11.6348 21.5804 11.6565 21.6671 11.6565C21.8838 11.6565 22.0788 11.5698 22.2521 11.4181C22.4688 11.2015 22.5338 10.8981 22.4471 10.6165L21.5588 7.58313Z" fill="#1D1D1D"></path><path d="M12.8918 20.5831L13.7801 17.5715C13.8668 17.2898 13.7801 16.9865 13.5851 16.7698C13.3685 16.5531 13.0651 16.4881 12.7835 16.5748L9.75012 17.4415L6.73845 16.5531C6.45678 16.4665 6.15345 16.5531 5.93678 16.7481C5.72012 16.9648 5.65512 17.2681 5.74178 17.5498L6.60845 20.5831L5.72012 23.5948C5.63345 23.8765 5.72012 24.1798 5.91512 24.3965C6.13178 24.6131 6.43512 24.6781 6.71678 24.5915L9.72845 23.7031L12.7401 24.5915C12.8051 24.6131 12.8918 24.6131 12.9785 24.6131C13.1951 24.6131 13.3901 24.5265 13.5635 24.3748C13.7801 24.1581 13.8451 23.8548 13.7585 23.5731L12.8918 20.5831Z" fill="#1D1D1D"></path><path d="M45.392 31.4166L46.2804 28.4049C46.367 28.1232 46.2804 27.8199 46.0854 27.6032C45.8687 27.3866 45.5654 27.3216 45.2837 27.4082L42.272 28.2966L39.2604 27.4082C38.9787 27.3216 38.6754 27.4082 38.4587 27.6032C38.242 27.8199 38.177 28.1232 38.2637 28.4049L39.152 31.4166L38.2637 34.4282C38.177 34.7099 38.2637 35.0132 38.4587 35.2299C38.6754 35.4466 38.9787 35.5116 39.2604 35.4249L42.272 34.5366L45.2837 35.4249C45.3487 35.4466 45.4354 35.4466 45.522 35.4466C45.7387 35.4466 45.9337 35.3599 46.107 35.2082C46.3237 34.9916 46.3887 34.6882 46.302 34.4066L45.392 31.4166Z" fill="#1D1D1D"></path></svg>