<svg xmlns="http://www.w3.org/2000/svg" width="52" height="52" viewBox="0 0 52 52" fill="none"><path d="M47.5882 18.5V35.578C47.5882 43.4647 42.8865 48.1663 34.9999 48.1663H16.8432C8.95655 48.1663 4.25488 43.4647 4.25488 35.578V18.5217L47.5882 18.5Z" fill="#1D1D1D"></path><path d="M19.5004 38.4586C19.2621 38.4586 19.0021 38.3936 18.7854 38.2852C17.1171 37.4402 15.6871 36.1836 14.6471 34.6236C13.7804 33.3236 13.7804 31.6552 14.6471 30.3552C15.6871 28.7952 17.1171 27.5386 18.7854 26.7152C19.5871 26.3036 20.5621 26.6502 20.9737 27.4519C21.3854 28.2536 21.0604 29.2286 20.2371 29.6402C19.0671 30.2252 18.0704 31.1136 17.3554 32.1969C17.2254 32.3919 17.2254 32.6519 17.3554 32.8686C18.0704 33.9519 19.0671 34.8402 20.2371 35.4252C21.0387 35.8369 21.3637 36.8119 20.9737 37.6136C20.6704 38.1336 20.0854 38.4586 19.5004 38.4586Z" fill="#4ADE80"></path><path d="M32.955 38.4592C32.3483 38.4592 31.785 38.1342 31.5033 37.5709C31.0917 36.7692 31.4167 35.7942 32.24 35.3826C33.41 34.7976 34.4067 33.9092 35.1217 32.8259C35.2517 32.6309 35.2517 32.3709 35.1217 32.1542C34.4067 31.0709 33.41 30.1826 32.24 29.5976C31.4383 29.1859 31.1133 28.2109 31.5033 27.4092C31.915 26.6076 32.89 26.2826 33.6917 26.6726C35.36 27.5176 36.79 28.7742 37.83 30.3342C38.6967 31.6342 38.6967 33.3026 37.83 34.6026C36.79 36.1626 35.36 37.4192 33.6917 38.2426C33.4317 38.3942 33.1933 38.4592 32.955 38.4592Z" fill="#4ADE80"></path><path d="M47.6663 16.9223V17.334L4.33301 17.3557V16.9223C4.33301 9.03565 9.03467 4.33398 16.9213 4.33398H35.078C42.9647 4.33398 47.6663 9.03565 47.6663 16.9223Z" fill="#1D1D1D"></path></svg>