<svg xmlns="http://www.w3.org/2000/svg" width="52" height="52" viewBox="0 0 52 52" fill="none"><path fill-rule="evenodd" clip-rule="evenodd" d="M42.8152 26.0021C42.8152 27.7647 44.2625 29.1988 46.0413 29.1988C46.9383 29.1988 47.6663 29.9202 47.6663 30.809V36.6077C47.6663 41.5111 43.6407 45.5 38.692 45.5H13.3095C8.36084 45.5 4.33301 41.5111 4.33301 36.6077V30.809C4.33301 29.9202 5.06101 29.1988 5.95801 29.1988C7.73901 29.1988 9.18634 27.7647 9.18634 26.0021C9.18634 24.2847 7.79751 22.9922 5.95801 22.9922C5.52684 22.9922 5.11517 22.8226 4.80967 22.5199C4.50417 22.2172 4.33301 21.8072 4.33301 21.3821L4.33734 15.3945C4.33734 10.491 8.36301 6.5 13.3117 6.5H38.6877C43.6363 6.5 47.6642 10.491 47.6642 15.3945L47.6663 21.1953C47.6663 21.6204 47.4952 22.0326 47.1918 22.3332C46.8863 22.6359 46.4747 22.8055 46.0413 22.8055C44.2625 22.8055 42.8152 24.2396 42.8152 26.0021ZM30.879 27.4041L33.4335 24.9394C33.8777 24.5144 34.0315 23.8875 33.8387 23.3078C33.648 22.7282 33.1497 22.316 32.5473 22.2322L29.0178 21.7213L27.4383 18.5525C27.1675 18.0072 26.6172 17.668 26.004 17.6659H25.9997C25.3887 17.6659 24.8383 18.0051 24.5632 18.5504L22.9837 21.7213L19.4607 22.2301C18.8518 22.316 18.3535 22.7282 18.1607 23.3078C17.97 23.8875 18.1238 24.5144 18.5658 24.9394L21.1203 27.4041L20.518 30.8884C20.414 31.4895 20.6588 32.0864 21.1572 32.4449C21.4388 32.6446 21.766 32.7476 22.0975 32.7476C22.351 32.7476 22.6067 32.6853 22.8407 32.563L25.9997 30.9185L29.1522 32.5587C29.6982 32.8485 30.346 32.8034 30.8422 32.4428C31.3427 32.0864 31.5875 31.4895 31.4835 30.8884L30.879 27.4041Z" fill="#1D1D1D"></path></svg>